<svg width="148" height="50" viewBox="0 0 148 50" fill="none" xmlns="http://www.w3.org/2000/svg">
<g id="Group">
<g id="Group_2">
<g id="Group_3">
<path id="Vector" d="M136.108 0.398597H12.611C12.1609 0.398597 11.7161 0.398597 11.2671 0.401052C10.8913 0.403507 10.5185 0.41064 10.139 0.416643C9.31471 0.426343 8.49233 0.498863 7.67904 0.633572C6.86689 0.771214 6.08018 1.03071 5.34552 1.40328C4.61176 1.779 3.9413 2.26721 3.35847 2.8502C2.77257 3.43155 2.28419 4.10351 1.91208 4.84025C1.53896 5.57552 1.28023 6.36343 1.14483 7.17677C1.00815 7.98908 0.934606 8.81075 0.924848 9.63442C0.913456 10.0108 0.912253 10.3884 0.90625 10.7649V39.1399C0.912253 39.5211 0.913456 39.8904 0.924848 40.2717C0.934609 41.0953 1.00816 41.9169 1.14483 42.7292C1.27985 43.543 1.5386 44.3314 1.91208 45.0669C2.28402 45.8013 2.77247 46.4705 3.35847 47.0486C3.93909 47.6342 4.60998 48.1227 5.34552 48.4956C6.08018 48.8692 6.8668 49.1302 7.67904 49.27C8.49247 49.4036 9.31477 49.4761 10.139 49.487C10.5185 49.4954 10.8913 49.5001 11.2671 49.5001C11.7161 49.5026 12.1609 49.5026 12.611 49.5026H136.108C136.549 49.5026 136.997 49.5026 137.438 49.5001C137.812 49.5001 138.196 49.4954 138.57 49.487C139.393 49.4767 140.214 49.4042 141.025 49.27C141.84 49.1292 142.63 48.8682 143.368 48.4956C144.103 48.1225 144.773 47.634 145.353 47.0486C145.938 46.4682 146.427 45.7995 146.804 45.0669C147.174 44.3308 147.431 43.5425 147.564 42.7292C147.701 41.9168 147.777 41.0954 147.791 40.2717C147.796 39.8904 147.796 39.5211 147.796 39.1399C147.806 38.6939 147.806 38.2504 147.806 37.7972V12.1051C147.806 11.6556 147.806 11.2096 147.796 10.7649C147.796 10.3884 147.796 10.0108 147.791 9.63437C147.777 8.81063 147.701 7.98914 147.564 7.17672C147.43 6.36385 147.174 5.576 146.804 4.8402C146.046 3.36349 144.844 2.16146 143.368 1.40317C142.63 1.03151 141.84 0.772083 141.025 0.633462C140.214 0.498159 139.393 0.425614 138.57 0.416471C138.196 0.41048 137.812 0.403287 137.438 0.400893C136.997 0.398438 136.549 0.398597 136.108 0.398597Z" fill="#A6A6A6"/>
<path id="Vector_2" d="M11.2717 48.4244C10.8977 48.4244 10.5327 48.4197 10.1616 48.4113C9.39288 48.4013 8.62593 48.3344 7.86707 48.2111C7.15947 48.0892 6.47399 47.8625 5.83325 47.5385C5.19839 47.2171 4.61934 46.7958 4.11829 46.2905C3.61 45.7912 3.18681 45.2121 2.86552 44.5762C2.54068 43.9361 2.31587 43.25 2.19893 42.5418C2.07264 41.7808 2.00431 41.0114 1.99453 40.24C1.98675 39.9811 1.97656 39.1191 1.97656 39.1191V10.7609C1.97656 10.7609 1.98741 9.9121 1.9946 9.66273C2.00396 8.89264 2.07189 8.12437 2.1978 7.36458C2.31496 6.65444 2.53994 5.96637 2.86495 5.32419C3.18507 4.68868 3.6059 4.10915 4.11114 3.60806C4.61581 3.10222 5.19671 2.67868 5.83265 2.35288C6.47192 2.02988 7.1561 1.80478 7.86227 1.68514C8.62362 1.56062 9.39323 1.4933 10.1646 1.48374L11.2723 1.46875H137.431L138.552 1.48434C139.316 1.49342 140.079 1.56014 140.833 1.68394C141.547 1.80508 142.238 2.03175 142.884 2.35648C144.159 3.01305 145.195 4.05182 145.849 5.32718C146.169 5.96493 146.39 6.64739 146.506 7.3514C146.634 8.11742 146.705 8.89173 146.72 9.66814C146.723 10.0158 146.723 10.3892 146.723 10.7609C146.733 11.2212 146.733 11.6594 146.733 12.1012V37.7932C146.733 38.2392 146.733 38.6744 146.723 39.1131C146.723 39.5123 146.723 39.878 146.718 40.2544C146.704 41.017 146.634 41.7774 146.508 42.5298C146.394 43.2431 146.17 43.9345 145.846 44.5798C145.522 45.2089 145.101 45.783 144.599 46.2809C144.097 46.7889 143.517 47.2127 142.881 47.5362C142.236 47.8627 141.546 48.0902 140.833 48.2111C140.074 48.335 139.307 48.402 138.539 48.4113C138.179 48.4197 137.803 48.4244 137.437 48.4244L136.106 48.4269L11.2717 48.4244Z" fill="black"/>
</g>
<g id="&#60;Group&#62;">
<g id="&#60;Group&#62;_2">
<g id="&#60;Group&#62;_3">
<path id="&#60;Path&#62;" d="M31.3136 25.3147C31.3268 24.2901 31.599 23.2855 32.1048 22.3943C32.6106 21.5031 33.3336 20.7543 34.2065 20.2177C33.652 19.4257 32.9204 18.7739 32.0699 18.3141C31.2194 17.8543 30.2734 17.5991 29.307 17.5689C27.2455 17.3525 25.2471 18.8024 24.1966 18.8024C23.1258 18.8024 21.5084 17.5904 19.7668 17.6262C18.6403 17.6626 17.5424 17.9902 16.5801 18.5771C15.6178 19.1639 14.8239 19.99 14.2759 20.9749C11.9017 25.0855 13.6726 31.1265 15.9469 34.4492C17.0847 36.0762 18.4146 37.8936 20.1546 37.8291C21.8574 37.7585 22.4933 36.7433 24.5487 36.7433C26.585 36.7433 27.1816 37.8291 28.957 37.7881C30.7841 37.7585 31.9353 36.1539 33.0333 34.5115C33.8508 33.3522 34.4799 32.0709 34.8973 30.7151C33.8358 30.2662 32.9299 29.5147 32.2926 28.5543C31.6553 27.594 31.3149 26.4673 31.3136 25.3147Z" fill="white"/>
<path id="&#60;Path&#62;_2" d="M27.962 15.3866C28.9583 14.1907 29.4491 12.6535 29.3302 11.1016C27.8082 11.2614 26.4023 11.9888 25.3926 13.1389C24.8989 13.7007 24.5208 14.3543 24.2799 15.0624C24.039 15.7704 23.94 16.519 23.9886 17.2653C24.7499 17.2732 25.503 17.1082 26.1913 16.7828C26.8795 16.4573 27.485 15.98 27.962 15.3866Z" fill="white"/>
</g>
</g>
<g id="Group_4">
<path id="Vector_3" d="M52.8392 33.7177H47.0285L45.6331 37.8381H43.1719L48.6757 22.5938H51.2328L56.7366 37.8381H54.2334L52.8392 33.7177ZM47.6303 31.8164H52.2363L49.9657 25.1293H49.9021L47.6303 31.8164Z" fill="white"/>
<path id="Vector_4" d="M68.6257 32.2777C68.6257 35.7315 66.7771 37.9505 63.9874 37.9505C63.2807 37.9875 62.5779 37.8247 61.9595 37.4808C61.341 37.1369 60.8319 36.6258 60.4904 36.006H60.4376V41.511H58.1562V26.7199H60.3645V28.5685H60.4065C60.7637 27.9517 61.2814 27.4432 61.9045 27.0972C62.5277 26.7512 63.233 26.5806 63.9454 26.6036C66.7662 26.6036 68.6257 28.8334 68.6257 32.2777ZM66.2807 32.2777C66.2807 30.0275 65.1179 28.5481 63.3436 28.5481C61.6005 28.5481 60.4281 30.0586 60.4281 32.2777C60.4281 34.5171 61.6005 36.0168 63.3436 36.0168C65.1179 36.0168 66.2807 34.5483 66.2807 32.2777Z" fill="white"/>
<path id="Vector_5" d="M80.8522 32.2777C80.8522 35.7315 79.0036 37.9505 76.2139 37.9505C75.5073 37.9875 74.8045 37.8247 74.186 37.4808C73.5676 37.1369 73.0584 36.6258 72.717 36.006H72.6642V41.511H70.3828V26.7199H72.591V28.5685H72.633C72.9902 27.9517 73.5079 27.4432 74.1311 27.0972C74.7542 26.7512 75.4595 26.5806 76.172 26.6036C78.9928 26.6036 80.8522 28.8334 80.8522 32.2777ZM78.5073 32.2777C78.5073 30.0275 77.3444 28.5481 75.5702 28.5481C73.8271 28.5481 72.6546 30.0586 72.6546 32.2777C72.6546 34.5171 73.8271 36.0168 75.5702 36.0168C77.3444 36.0168 78.5073 34.5482 78.5073 32.2777Z" fill="white"/>
<path id="Vector_6" d="M88.9369 33.587C89.106 35.0987 90.5745 36.0913 92.5814 36.0913C94.5043 36.0913 95.8877 35.0987 95.8877 33.7356C95.8877 32.5524 95.0533 31.8439 93.0777 31.3583L91.102 30.8824C88.3028 30.2063 87.0032 28.8971 87.0032 26.7728C87.0032 24.1426 89.2954 22.3359 92.5502 22.3359C95.7714 22.3359 97.9797 24.1426 98.054 26.7728H95.751C95.6132 25.2515 94.3556 24.3332 92.5178 24.3332C90.68 24.3332 89.4224 25.2623 89.4224 26.6146C89.4224 27.6923 90.2256 28.3265 92.1905 28.812L93.8701 29.2244C96.9978 29.964 98.2973 31.2204 98.2973 33.4502C98.2973 36.3022 96.0255 38.0885 92.4123 38.0885C89.0316 38.0885 86.749 36.3442 86.6016 33.5869L88.9369 33.587Z" fill="white"/>
<path id="Vector_7" d="M103.228 24.0938V26.724H105.342V28.5306H103.228V34.6578C103.228 35.6097 103.652 36.0533 104.581 36.0533C104.832 36.0489 105.082 36.0313 105.331 36.0005V37.7963C104.914 37.8744 104.489 37.9097 104.064 37.9018C101.814 37.9018 100.936 37.0566 100.936 34.9011V28.5306H99.3203V26.724H100.936V24.0938H103.228Z" fill="white"/>
<path id="Vector_8" d="M106.562 32.2804C106.562 28.7834 108.622 26.5859 111.834 26.5859C115.056 26.5859 117.106 28.7833 117.106 32.2804C117.106 35.7869 115.067 37.9748 111.834 37.9748C108.602 37.9748 106.562 35.7869 106.562 32.2804ZM114.782 32.2804C114.782 29.8815 113.682 28.4657 111.834 28.4657C109.985 28.4657 108.887 29.8923 108.887 32.2804C108.887 34.6888 109.985 36.0938 111.834 36.0938C113.682 36.0938 114.782 34.6888 114.782 32.2804Z" fill="white"/>
<path id="Vector_9" d="M118.984 26.7198H121.16V28.6115H121.213C121.36 28.0207 121.706 27.4986 122.193 27.1329C122.68 26.7672 123.278 26.5803 123.886 26.6035C124.149 26.6026 124.412 26.6311 124.668 26.6886V28.8225C124.336 28.7211 123.99 28.6745 123.643 28.6847C123.312 28.6712 122.981 28.7297 122.674 28.856C122.368 28.9823 122.092 29.1734 121.866 29.4164C121.64 29.6593 121.47 29.9482 121.366 30.2633C121.262 30.5784 121.228 30.9122 121.266 31.2418V37.8341H118.984L118.984 26.7198Z" fill="white"/>
<path id="Vector_10" d="M135.19 34.5725C134.883 36.5902 132.918 37.9748 130.404 37.9748C127.171 37.9748 125.164 35.8085 125.164 32.3331C125.164 28.8469 127.182 26.5859 130.308 26.5859C133.383 26.5859 135.317 28.6983 135.317 32.0682V32.8498H127.467V32.9877C127.431 33.3967 127.482 33.8088 127.617 34.1965C127.753 34.5842 127.969 34.9387 128.251 35.2365C128.534 35.5342 128.877 35.7684 129.257 35.9235C129.638 36.0785 130.047 36.1509 130.457 36.1358C130.996 36.1863 131.537 36.0614 131.999 35.7798C132.462 35.4981 132.821 35.0747 133.024 34.5725L135.19 34.5725ZM127.478 31.2554H133.034C133.055 30.8876 132.999 30.5195 132.871 30.1743C132.742 29.8291 132.544 29.5142 132.288 29.2493C132.032 28.9844 131.724 28.7753 131.383 28.6351C131.042 28.4949 130.677 28.4266 130.308 28.4345C129.937 28.4323 129.568 28.5037 129.225 28.6446C128.881 28.7854 128.568 28.993 128.305 29.2552C128.042 29.5175 127.834 29.8292 127.691 30.1725C127.549 30.5158 127.477 30.8839 127.478 31.2554Z" fill="white"/>
</g>
</g>
</g>
<g id="&#60;Group&#62;_4">
<g id="Group_5">
<path id="Vector_11" d="M47.3411 11.1177C47.8194 11.0834 48.2994 11.1556 48.7463 11.3292C49.1933 11.5029 49.5962 11.7735 49.9259 12.1217C50.2556 12.4699 50.504 12.8869 50.653 13.3427C50.802 13.7984 50.8481 14.2816 50.7878 14.7573C50.7878 17.0974 49.523 18.4426 47.3411 18.4426H44.6953V11.1177H47.3411ZM45.833 17.4067H47.214C47.5558 17.4271 47.8978 17.3711 48.2152 17.2426C48.5326 17.1142 48.8174 16.9166 49.0487 16.6643C49.2801 16.4119 49.4524 16.1112 49.5528 15.7839C49.6533 15.4566 49.6796 15.111 49.6297 14.7723C49.676 14.4349 49.6471 14.0914 49.545 13.7665C49.443 13.4416 49.2703 13.1433 49.0395 12.893C48.8086 12.6426 48.5252 12.4464 48.2096 12.3185C47.894 12.1905 47.5541 12.1339 47.214 12.1528H45.833V17.4067Z" fill="white"/>
<path id="Vector_12" d="M52.0748 15.6806C52.0401 15.3174 52.0816 14.9508 52.1968 14.6046C52.312 14.2583 52.4983 13.9399 52.7438 13.6699C52.9892 13.3998 53.2884 13.1841 53.6221 13.0364C53.9559 12.8888 54.3168 12.8125 54.6817 12.8125C55.0466 12.8125 55.4075 12.8888 55.7412 13.0364C56.075 13.1841 56.3741 13.3998 56.6196 13.6699C56.865 13.9399 57.0513 14.2583 57.1665 14.6046C57.2817 14.9508 57.3233 15.3174 57.2885 15.6806C57.3239 16.0443 57.2829 16.4113 57.168 16.7581C57.0531 17.105 56.8669 17.4239 56.6214 17.6945C56.3759 17.9651 56.0765 18.1813 55.7424 18.3293C55.4084 18.4772 55.047 18.5537 54.6817 18.5537C54.3163 18.5537 53.955 18.4772 53.6209 18.3293C53.2869 18.1813 52.9875 17.9651 52.742 17.6945C52.4965 17.4239 52.3103 17.105 52.1954 16.7581C52.0805 16.4113 52.0394 16.0443 52.0748 15.6806ZM56.1664 15.6806C56.1664 14.4824 55.6281 13.7817 54.6835 13.7817C53.7352 13.7817 53.2018 14.4824 53.2018 15.6807C53.2018 16.8885 53.7352 17.5838 54.6835 17.5838C55.6282 17.5838 56.1664 16.8837 56.1664 15.6806Z" fill="white"/>
<path id="Vector_13" d="M64.2209 18.4419H63.0892L61.9467 14.3706H61.8604L60.7227 18.4419H59.6018L58.0781 12.9141H59.1846L60.1749 17.1321H60.2564L61.3929 12.9141H62.4395L63.576 17.1321H63.6623L64.6477 12.9141H65.7386L64.2209 18.4419Z" fill="white"/>
<path id="Vector_14" d="M67.0156 12.9168H68.0658V13.795H68.1473C68.2856 13.4796 68.5189 13.2152 68.8146 13.0386C69.1103 12.8621 69.4537 12.7822 69.7969 12.8101C70.0659 12.7899 70.3359 12.8305 70.5871 12.9288C70.8383 13.0271 71.0641 13.1807 71.2478 13.3781C71.4316 13.5756 71.5686 13.8119 71.6486 14.0694C71.7287 14.327 71.7497 14.5993 71.7102 14.8661V18.4446H70.6193V15.1401C70.6193 14.2517 70.2333 13.81 69.4265 13.81C69.2439 13.8015 69.0616 13.8325 68.8921 13.9011C68.7226 13.9696 68.5699 14.074 68.4446 14.207C68.3192 14.3401 68.2241 14.4987 68.1658 14.6719C68.1074 14.8452 68.0872 15.029 68.1066 15.2108V18.4446H67.0156L67.0156 12.9168Z" fill="white"/>
<path id="Vector_15" d="M73.4453 10.7578H74.5362V18.4435H73.4453V10.7578Z" fill="white"/>
<path id="Vector_16" d="M76.0592 15.6807C76.0245 15.3174 76.066 14.9509 76.1813 14.6046C76.2965 14.2583 76.4828 13.94 76.7283 13.6699C76.9738 13.3998 77.273 13.1841 77.6067 13.0364C77.9405 12.8888 78.3014 12.8125 78.6663 12.8125C79.0313 12.8125 79.3922 12.8888 79.726 13.0364C80.0597 13.1841 80.3589 13.3998 80.6044 13.6699C80.8498 13.94 81.0362 14.2583 81.1514 14.6046C81.2666 14.9509 81.3082 15.3174 81.2735 15.6807C81.3088 16.0444 81.2677 16.4114 81.1528 16.7583C81.0379 17.1051 80.8517 17.424 80.6061 17.6946C80.3606 17.9652 80.0612 18.1814 79.7271 18.3293C79.393 18.4773 79.0317 18.5537 78.6663 18.5537C78.301 18.5537 77.9396 18.4773 77.6056 18.3293C77.2715 18.1814 76.9721 17.9652 76.7265 17.6946C76.481 17.424 76.2948 17.1051 76.1798 16.7583C76.0649 16.4114 76.0238 16.0444 76.0592 15.6807ZM80.1508 15.6807C80.1508 14.4825 79.6125 13.7818 78.6678 13.7818C77.7196 13.7818 77.1861 14.4825 77.1861 15.6808C77.1861 16.8886 77.7196 17.5839 78.6678 17.5839C79.6125 17.5839 80.1508 16.8838 80.1508 15.6807Z" fill="white"/>
<path id="Vector_17" d="M82.4219 16.8837C82.4219 15.8887 83.1628 15.315 84.4779 15.2335L85.9752 15.1472V14.6701C85.9752 14.0862 85.5892 13.7566 84.8435 13.7566C84.2345 13.7566 83.8125 13.9802 83.6914 14.371H82.6353C82.7468 13.4215 83.6399 12.8125 84.8939 12.8125C86.2797 12.8125 87.0613 13.5024 87.0613 14.6701V18.447H86.0112V17.6701H85.9249C85.7497 17.9488 85.5036 18.176 85.2119 18.3285C84.9202 18.4809 84.5933 18.5533 84.2645 18.5381C84.0324 18.5622 83.7979 18.5374 83.576 18.4654C83.3541 18.3933 83.1497 18.2756 82.9761 18.1197C82.8025 17.9638 82.6635 17.7733 82.568 17.5604C82.4726 17.3475 82.4228 17.117 82.4219 16.8837ZM85.9752 16.4114V15.9492L84.6253 16.0355C83.8641 16.0865 83.5188 16.3454 83.5188 16.8328C83.5188 17.3303 83.9504 17.6198 84.5438 17.6198C84.7177 17.6374 84.8934 17.6198 85.0603 17.5682C85.2273 17.5165 85.3821 17.4318 85.5157 17.319C85.6492 17.2063 85.7587 17.0678 85.8377 16.9119C85.9166 16.756 85.9634 16.5857 85.9752 16.4114Z" fill="white"/>
<path id="Vector_18" d="M88.4922 15.6772C88.4922 13.9305 89.3901 12.824 90.7867 12.824C91.1322 12.8081 91.4751 12.8908 91.7753 13.0626C92.0754 13.2343 92.3205 13.4879 92.4819 13.7938H92.5634V10.7578H93.6543V18.4435H92.609V17.5701H92.5227C92.3488 17.874 92.0952 18.1244 91.7892 18.2944C91.4832 18.4644 91.1366 18.5475 90.7868 18.5346C89.3805 18.5347 88.4922 17.4281 88.4922 15.6772ZM89.6191 15.6772C89.6191 16.8497 90.1718 17.5552 91.0961 17.5552C92.0156 17.5552 92.5838 16.8395 92.5838 15.682C92.5838 14.5299 92.0096 13.8041 91.0961 13.8041C90.1777 13.8041 89.6191 14.5144 89.6191 15.6772Z" fill="white"/>
<path id="Vector_19" d="M98.1686 15.6806C98.1338 15.3174 98.1754 14.9508 98.2906 14.6046C98.4058 14.2583 98.5921 13.9399 98.8375 13.6699C99.083 13.3998 99.3822 13.1841 99.7159 13.0364C100.05 12.8888 100.411 12.8125 100.775 12.8125C101.14 12.8125 101.501 12.8888 101.835 13.0364C102.169 13.1841 102.468 13.3998 102.713 13.6699C102.959 13.9399 103.145 14.2583 103.26 14.6046C103.375 14.9508 103.417 15.3174 103.382 15.6806C103.418 16.0443 103.377 16.4113 103.262 16.7581C103.147 17.105 102.961 17.4239 102.715 17.6945C102.47 17.9651 102.17 18.1813 101.836 18.3293C101.502 18.4772 101.141 18.5537 100.775 18.5537C100.41 18.5537 100.049 18.4772 99.7147 18.3293C99.3806 18.1813 99.0812 17.9651 98.8357 17.6945C98.5902 17.4239 98.404 17.105 98.2891 16.7581C98.1742 16.4113 98.1332 16.0443 98.1686 15.6806ZM102.26 15.6806C102.26 14.4824 101.722 13.7817 100.777 13.7817C99.829 13.7817 99.2955 14.4824 99.2955 15.6807C99.2955 16.8885 99.829 17.5838 100.777 17.5838C101.722 17.5838 102.26 16.8837 102.26 15.6806Z" fill="white"/>
<path id="Vector_20" d="M104.844 12.9168H105.894V13.795H105.975C106.114 13.4796 106.347 13.2152 106.643 13.0386C106.938 12.8621 107.282 12.7822 107.625 12.8101C107.894 12.7899 108.164 12.8305 108.415 12.9288C108.666 13.0271 108.892 13.1807 109.076 13.3781C109.26 13.5756 109.397 13.8119 109.477 14.0694C109.557 14.327 109.578 14.5993 109.538 14.8661V18.4446H108.447V15.1401C108.447 14.2517 108.061 13.81 107.255 13.81C107.072 13.8015 106.89 13.8325 106.72 13.9011C106.551 13.9696 106.398 14.074 106.273 14.207C106.147 14.3401 106.052 14.4987 105.994 14.6719C105.936 14.8452 105.915 15.029 105.935 15.2108V18.4446H104.844V12.9168Z" fill="white"/>
<path id="Vector_21" d="M115.704 11.5391V12.9405H116.902V13.8594H115.704V16.7018C115.704 17.2809 115.943 17.5344 116.486 17.5344C116.625 17.534 116.764 17.5256 116.902 17.5092V18.4179C116.706 18.453 116.507 18.4716 116.308 18.4737C115.095 18.4737 114.612 18.0469 114.612 16.9811V13.8593H113.734V12.9404H114.612V11.5391H115.704Z" fill="white"/>
<path id="Vector_22" d="M118.391 10.7578H119.472V13.804H119.558C119.703 13.4857 119.943 13.2198 120.245 13.0426C120.546 12.8654 120.895 12.7855 121.244 12.8138C121.511 12.7992 121.779 12.8439 122.027 12.9446C122.275 13.0454 122.498 13.1996 122.68 13.3965C122.862 13.5933 122.998 13.8278 123.079 14.0833C123.16 14.3388 123.183 14.609 123.148 14.8746V18.4435H122.055V15.1437C122.055 14.2608 121.644 13.8136 120.873 13.8136C120.686 13.7982 120.497 13.824 120.321 13.8891C120.144 13.9543 119.984 14.0572 119.852 14.1907C119.719 14.3242 119.617 14.485 119.553 14.6619C119.489 14.8389 119.465 15.0276 119.482 15.215V18.4435H118.391L118.391 10.7578Z" fill="white"/>
<path id="Vector_23" d="M129.511 16.9545C129.363 17.4597 129.042 17.8968 128.604 18.1891C128.166 18.4815 127.64 18.6105 127.116 18.5538C126.752 18.5634 126.39 18.4936 126.056 18.3494C125.721 18.2051 125.422 17.9897 125.179 17.7183C124.936 17.4468 124.755 17.1257 124.649 16.7773C124.542 16.4289 124.513 16.0615 124.563 15.7006C124.514 15.3386 124.544 14.9704 124.65 14.6209C124.756 14.2714 124.936 13.9489 125.178 13.675C125.42 13.4012 125.717 13.1825 126.051 13.0337C126.384 12.8849 126.746 12.8095 127.111 12.8126C128.649 12.8126 129.577 13.8634 129.577 15.5992V15.9799H125.674V16.041C125.657 16.2439 125.682 16.4481 125.749 16.6405C125.815 16.8329 125.921 17.0094 126.06 17.1585C126.198 17.3076 126.367 17.426 126.554 17.5063C126.741 17.5866 126.943 17.6269 127.146 17.6246C127.407 17.656 127.671 17.609 127.906 17.4897C128.14 17.3703 128.333 17.184 128.461 16.9545L129.511 16.9545ZM125.674 15.1731H128.466C128.48 14.9876 128.455 14.8012 128.392 14.626C128.329 14.4508 128.231 14.2906 128.103 14.1558C127.975 14.0209 127.82 13.9143 127.648 13.8429C127.476 13.7715 127.291 13.7368 127.105 13.7411C126.917 13.7387 126.729 13.7741 126.555 13.8453C126.38 13.9164 126.221 14.0218 126.088 14.1553C125.954 14.2887 125.849 14.4475 125.778 14.6223C125.707 14.7971 125.671 14.9844 125.674 15.1731Z" fill="white"/>
</g>
</g>
</g>
</svg>
